<svg width="818" height="329" viewBox="0 0 818 329" fill="none" xmlns="http://www.w3.org/2000/svg">
<g clip-path="url(#clip0_1_14)">
<path d="M675.24 124.4C673.64 116.528 669.608 111.472 661.032 111.472C649.192 111.472 644.52 121.072 644.52 135.152C644.52 149.168 649.192 158.832 661.032 158.832C670.056 158.832 674.344 153.2 675.816 144.624H668.904C667.688 150.512 665 152.24 660.712 152.24C653.864 152.24 651.496 145.84 651.496 135.152C651.496 124.464 653.864 118.064 660.712 118.064C665 118.064 667.112 119.92 668.392 124.4H675.24ZM704.999 158H711.847L702.695 112.304H689.383L680.295 158H687.015L689.511 144.432H702.439L704.999 158ZM694.247 119.344H697.767L701.223 138.032H690.727L694.247 119.344ZM743.156 112.304H714.42V118.704H725.364V158H732.212V118.704H743.156V112.304ZM750.631 158H757.479V137.712H765.031L772.519 158H779.751L770.983 134.512L779.239 112.304H772.007L765.031 131.184H757.479V112.304H750.631V158ZM808.937 158H815.785L806.633 112.304H793.321L784.233 158H790.953L793.449 144.432H806.377L808.937 158ZM798.185 119.344H801.705L805.161 138.032H794.665L798.185 119.344Z" fill="black"/>
<path d="M61.792 50.184L52.72 97.848H48.688L39.616 50.184H10.528V153H25.36V66.024H29.392L38.752 114.12H62.08L71.44 66.024H75.472V153H90.304V50.184H61.792ZM138.19 88.488L120.766 50.184H104.206L134.014 116.424L119.614 153H135.598L176.062 50.184H160.078L144.958 88.488H138.19ZM231.006 77.976C231.006 85.464 227.838 92.232 219.198 92.232H205.374V107.064H218.334C230.142 107.064 234.318 113.544 234.318 123.048C234.318 133.56 227.262 139.896 217.038 139.896C206.814 139.896 199.614 134.856 197.454 124.776H181.758C184.35 142.92 196.014 154.872 217.326 154.872C238.638 154.872 250.014 140.328 250.014 124.056C250.014 109.8 244.398 103.464 237.486 100.008V95.976C242.526 92.952 246.702 87.048 246.702 75.528C246.702 60.696 236.334 48.312 216.75 48.312C198.894 48.312 187.662 59.112 185.79 76.248H201.198C202.926 66.744 208.542 63.288 216.894 63.288C225.102 63.288 231.006 68.472 231.006 77.976ZM285.108 138.6V106.92H316.212V92.52H285.108V64.584H327.444V50.184H269.7V153H327.444V138.6H285.108ZM347.184 50.184V153H372.672L397.296 72.648H401.328V153H416.16V50.184H390.672L366.048 130.536H362.016V50.184H347.184ZM391.968 21.384C391.968 28.296 388.08 31.464 381.6 31.464C375.264 31.464 371.376 28.296 371.376 21.384H359.28C359.28 35.64 367.92 42.84 381.6 42.84C395.568 42.84 404.208 35.64 404.208 21.384H391.968Z" fill="black"/>
<line x1="10" y1="173" x2="816" y2="173" stroke="black" stroke-width="10"/>
<path d="M19.728 246.584L40.176 222.248H23.76L5.76 243.56V253.784L23.76 274.952H40.176L19.728 250.616V246.584ZM48.528 246.584L68.976 222.248H52.56L34.56 243.56V253.784L52.56 274.952H68.976L48.528 250.616V246.584ZM137.058 196.184L127.986 243.848H123.954L114.882 196.184H85.7936V299H100.626V212.024H104.658L114.018 260.12H137.346L146.706 212.024H150.738V299H165.57V196.184H137.058ZM237.935 299H253.343L232.751 196.184H202.799L182.351 299H197.471L203.087 268.472H232.175L237.935 299ZM213.743 212.024H221.663L229.439 254.072H205.823L213.743 212.024ZM326.025 210.584V196.184H270.153V299H285.561V210.584H326.025ZM392.104 196.184V238.664H358.264V196.184H342.856V299H358.264V253.352H392.104V299H407.512V196.184H392.104ZM447.983 284.6V252.92H479.087V238.52H447.983V210.584H490.319V196.184H432.575V299H490.319V284.6H447.983ZM551.099 223.976C551.099 231.464 547.931 238.232 539.291 238.232H525.467V253.064H538.427C550.235 253.064 554.411 259.544 554.411 269.048C554.411 279.56 547.355 285.896 537.131 285.896C526.907 285.896 519.707 280.856 517.547 270.776H501.851C504.443 288.92 516.107 300.872 537.419 300.872C558.731 300.872 570.107 286.328 570.107 270.056C570.107 255.8 564.491 249.464 557.579 246.008V241.976C562.619 238.952 566.795 233.048 566.795 221.528C566.795 206.696 556.427 194.312 536.843 194.312C518.987 194.312 507.755 205.112 505.883 222.248H521.291C523.019 212.744 528.635 209.288 536.987 209.288C545.195 209.288 551.099 214.472 551.099 223.976ZM589.794 196.184V299H615.282L639.906 218.648H643.938V299H658.77V196.184H633.282L608.658 276.536H604.626V196.184H589.794ZM740.32 196.184H675.664V210.584H700.288V299H715.696V210.584H740.32V196.184ZM769.377 250.616L748.929 274.952H765.345L783.345 253.784V243.56L765.345 222.248H748.929L769.377 246.584V250.616ZM798.177 250.616L777.729 274.952H794.145L812.145 253.784V243.56L794.145 222.248H777.729L798.177 246.584V250.616Z" fill="black"/>
</g>
<defs>
<clipPath id="clip0_1_14">
<rect width="818" height="329" fill="white"/>
</clipPath>
</defs>
</svg>
